<?xml version="1.0" encoding="utf-8"?>
<!-- Generator: Adobe Illustrator 16.0.0, SVG Export Plug-In . SVG Version: 6.00 Build 0)  -->
<!DOCTYPE svg PUBLIC "-//W3C//DTD SVG 1.1//EN" "http://www.w3.org/Graphics/SVG/1.1/DTD/svg11.dtd">
<svg width="512" height="512" xmlns="http://www.w3.org/2000/svg">
 <g>
  <title>Layer 1</title>
  <path fill="#8bc34a" id="svg_1" d="m384,176c0,-97.061996 -57.406006,-176 -128,-176c-70.563004,0 -128,78.938004 -128,176h-64v336h384v-336h-64l0,0zm-240,64c-8.843994,0 -16,-7.156006 -16,-16s7.156006,-16 16,-16s16,7.156006 16,16s-7.156006,16 -16,16zm112,-208c52.937988,0 96,64.594002 96,144h-192c0,-79.405998 43.063004,-144 96,-144zm112,208c-8.843994,0 -16,-7.156006 -16,-16s7.156006,-16 16,-16s16,7.156006 16,16s-7.156006,16 -16,16z"/>
 </g>
</svg>
